name C:/MyDriveSym/Projects/mobilecap/Data\Session20210820_0002\mocap\ForceDataProcessed\walking2_forces.mot
datacolumns 19
datarows 17
range 0.67950000 0.68750000
endheader 
time	R_ground_force_vx	R_ground_force_vy	R_ground_force_vz	R_ground_force_px	R_ground_force_py	R_ground_force_pz	R_ground_torque_x	R_ground_torque_y	R_ground_torque_z	L_ground_force_vx	L_ground_force_vy	L_ground_force_vz	L_ground_force_px	L_ground_force_py	L_ground_force_pz	L_ground_torque_x	L_ground_torque_y	L_ground_torque_z	
          0.67950000	         23.11165300	         96.56987600	          1.50454900	          0.39906900	          0.00600000	         -0.16908800	          0.00000000	         -0.97698300	          0.00000000	       -125.74103800	        807.92884800	         25.82721000	          0.86975900	          0.00600000	         -0.27044700	          0.00000000	          1.21782900	          0.00000000	
          0.68000000	         22.74091600	         94.87487400	          1.47848800	          0.39971800	          0.00600000	         -0.16918100	          0.00000000	         -0.96290500	          0.00000000	       -125.73987700	        808.86305400	         25.97105200	          0.86983500	          0.00600000	         -0.27046000	          0.00000000	          1.21421400	          0.00000000	
          0.68050000	         22.37309700	         93.19521700	          1.45260900	          0.40037800	          0.00600000	         -0.16927500	          0.00000000	         -0.94890900	          0.00000000	       -125.73248300	        809.77676700	         26.11356700	          0.86991100	          0.00600000	         -0.27047400	          0.00000000	          1.21060800	          0.00000000	
          0.68100000	         22.00820400	         91.53087700	          1.42691500	          0.40105200	          0.00600000	         -0.16937000	          0.00000000	         -0.93499500	          0.00000000	       -125.71887700	        810.67003100	         26.25475000	          0.86998600	          0.00600000	         -0.27048700	          0.00000000	          1.20701300	          0.00000000	
          0.68150000	         21.64624500	         89.88182500	          1.40141100	          0.40173800	          0.00600000	         -0.16946700	          0.00000000	         -0.92116500	          0.00000000	       -125.69908300	        811.54288900	         26.39459600	          0.87006000	          0.00600000	         -0.27050100	          0.00000000	          1.20342800	          0.00000000	
          0.68200000	         21.28722700	         88.24803000	          1.37610100	          0.40243800	          0.00600000	         -0.16956600	          0.00000000	         -0.90741900	          0.00000000	       -125.67312300	        812.39538900	         26.53310000	          0.87013400	          0.00600000	         -0.27051400	          0.00000000	          1.19985700	          0.00000000	
          0.68250000	         20.93115800	         86.62946000	          1.35098900	          0.40315200	          0.00600000	         -0.16966600	          0.00000000	         -0.89375700	          0.00000000	       -125.64102000	        813.22758100	         26.67025800	          0.87020700	          0.00600000	         -0.27052700	          0.00000000	          1.19629800	          0.00000000	
          0.68300000	         20.57804300	         85.02608200	          1.32607700	          0.40388100	          0.00600000	         -0.16976800	          0.00000000	         -0.88018100	          0.00000000	       -125.60280100	        814.03951500	         26.80606700	          0.87028000	          0.00600000	         -0.27054000	          0.00000000	          1.19275500	          0.00000000	
          0.68350000	         20.22788700	         83.43786300	          1.30137000	          0.40462400	          0.00600000	         -0.16987100	          0.00000000	         -0.86669000	          0.00000000	       -125.55848900	        814.83124500	         26.94052200	          0.87035100	          0.00600000	         -0.27055300	          0.00000000	          1.18922700	          0.00000000	
          0.68400000	         19.88069500	         81.86476500	          1.27686900	          0.40538400	          0.00600000	         -0.16997600	          0.00000000	         -0.85328600	          0.00000000	       -125.50811100	        815.60282500	         27.07361900	          0.87042300	          0.00600000	         -0.27056600	          0.00000000	          1.18571600	          0.00000000	
          0.68450000	         19.53647100	         80.30675400	          1.25257900	          0.40616000	          0.00600000	         -0.17008300	          0.00000000	         -0.83996900	          0.00000000	       -125.45169300	        816.35431400	         27.20535700	          0.87049400	          0.00600000	         -0.27057900	          0.00000000	          1.18222300	          0.00000000	
          0.68500000	         19.19521800	         78.76379200	          1.22850100	          0.40695300	          0.00600000	         -0.17019200	          0.00000000	         -0.82673900	          0.00000000	       -125.38926300	        817.08576800	         27.33573200	          0.87056400	          0.00600000	         -0.27059100	          0.00000000	          1.17874900	          0.00000000	
          0.68550000	         18.85694000	         77.23583900	          1.20463900	          0.40776400	          0.00600000	         -0.17030300	          0.00000000	         -0.81359800	          0.00000000	       -125.32084700	        817.79724900	         27.46474200	          0.87063300	          0.00600000	         -0.27060400	          0.00000000	          1.17529600	          0.00000000	
          0.68600000	         18.52163800	         75.72285700	          1.18099500	          0.40859300	          0.00600000	         -0.17041600	          0.00000000	         -0.80054600	          0.00000000	       -125.24647600	        818.48882100	         27.59238500	          0.87070200	          0.00600000	         -0.27061600	          0.00000000	          1.17186300	          0.00000000	
          0.68650000	         18.18931500	         74.22480300	          1.15757100	          0.40944100	          0.00600000	         -0.17053100	          0.00000000	         -0.78758200	          0.00000000	       -125.16617700	        819.16054600	         27.71865900	          0.87077100	          0.00600000	         -0.27062800	          0.00000000	          1.16845400	          0.00000000	
          0.68700000	         17.85997100	         72.74163700	          1.13437000	          0.41030900	          0.00600000	         -0.17064900	          0.00000000	         -0.77470900	          0.00000000	       -125.07998000	        819.81249200	         27.84356200	          0.87083900	          0.00600000	         -0.27064000	          0.00000000	          1.16506700	          0.00000000	
          0.68750000	         17.53360700	         71.27331500	          1.11139200	          0.41119700	          0.00600000	         -0.17076800	          0.00000000	         -0.76192600	          0.00000000	       -124.98791600	        820.44472600	         27.96709500	          0.87090600	          0.00600000	         -0.27065200	          0.00000000	          1.16170500	          0.00000000	
